<?xml version="1.0" encoding="UTF-8"?>
<svg id="Layer_1" xmlns="http://www.w3.org/2000/svg" version="1.1" viewBox="0 0 6665 3212">
  <!-- Generator: Adobe Illustrator 30.1.0, SVG Export Plug-In . SVG Version: 2.1.1 Build 136)  -->
  <defs>
    <style>
      .st0 {
        fill: #fff;
      }
    </style>
  </defs>
  <g id="black">
    <path class="st0" d="M3864.1,1050.18c3.28-.9,5.2,3.6,2.26,5.32-47.31,27.64-167.84,106.03-227.75,218.14-75.53,141.35-52.87,197.45-56.11,410.01-3.24,212.56-2.16,329.09,7.55,426.2,9.41,94.11,104.28,142.28,159.89,172.66,2.9,1.58,3.94,5.22,2.33,8.09-19.03,34.01-133.52,225.98-359.07,352.74-3.09,1.74-6.22-2.23-3.8-4.82,46.29-49.67,195.23-217.87,217.59-348.68.99-5.77-1.36-11.6-6.05-15.1-19.33-14.44-70.42-52.48-83.17-60.6-7.27-4.63-15.91-6.98-23.12-8.16-7.78-1.28-12.8-8.96-10.94-16.62,5.51-22.79,14.57-67.71,13.56-113.32-1.25-56.78-9.35-264.29-11.4-316.42-.29-7.33-4.22-14.01-10.47-17.84-30.49-18.69-127.86-83.49-253.5-218.31-.58-.63-1.61-.49-1.99.28-6.8,13.88-55.88,116.63-63.24,206.3-7.91,82.72-12.23,123.72-15.11,197.09-2.72,69.37,22.21,148.37,59.58,219.4,3.54,6.73.86,15.04-5.92,18.48-21.88,11.08-66.24,34.17-81.72,46.97s-36.79,31.9-47.16,41.26c-3.88,3.5-5.75,8.71-4.97,13.88,5.84,38.96,39.32,207.56,197.63,375.56,2.22,2.36-.18,6.11-3.25,5.07-36.98-12.52-165.17-74.22-349.36-360.32-1.93-2.99-.8-6.99,2.4-8.55,13.3-6.45,46.79-23.37,82.43-46.76,46.04-30.21,57.55-55.39,59.7-89.2,2.16-33.81,13.67-218.67,12.23-343.11s-2.88-249.6-18.7-383.4c-15.49-130.93-26.84-244.64-269.32-372.13-3.19-1.67-1.55-6.52,2-5.92,43.37,7.34,157.9,35.33,276.44,136.13,198.05,181.27,312.66,397.54,416.72,461.32,0,0-7.51-138.63-46.24-216.79-3.14-6.35-2.92-13.83.54-20.01,28.5-50.93,166.62-273.73,439.51-348.84Z"/>
    <path class="st0" d="M3610.25,1788.38l-2.47,37.47c-.22,3.27.97,6.46,3.26,8.79,22.28,22.63,142.45,146.09,208.83,241.76,70.7,101.89,65.26,200.78,42.56,244.53-.54,1.04.72,2.07,1.63,1.33,21.22-17.12,117.61-98.34,199.66-224.28,92.79-142.42,130.56-205.01,96.03-277.3-34.53-72.29-155.73-135.23-224.79-158.25-50.82-16.94-85.27-49.46-99.93-65.46-2.16-2.36-6-.07-4.94,2.95,7.08,20.2,30.6,63.84,108.47,120.05,108.62,78.41,133.07,147.46,135.23,167.6s-76.97,130.2-97.11,150.34c-20.14,20.14-34.17,21.22-49.99,10.07-15.82-11.15-4.68-45.32-.36-49.99s.72-12.59-8.63-18.34c-9-5.54-236.92-148.87-300.31-194.63-2.88-2.08-6.91-.18-7.14,3.36Z"/>
    <path class="st0" d="M4001.69,1818.85c-44.51-9.21-336.18-79.06-376.03-334.09,0,0-4.8-19.66,10.55-36.92,13.9-15.64,228.95-204.87,269.26-240.31,3.02-2.65,7.75-1.35,9,2.46,11.82,35.84,67.33,179.78,210.2,231.48,4.42,1.6,4.5,7.81.12,9.5-32.11,12.42-130.12,31.81-283.4-101.03-2.18-1.89-5.4-1.92-7.6-.06l-75.16,63.66c-1.69,1.43-2.79,3.43-3.08,5.62-3.6,27.34-16.81,211.94,247.07,397.47,1.09.77.36,2.47-.95,2.2Z"/>
    <path class="st0" d="M4089.5,1104.53c-4.01-.65-6.24,4.5-2.99,6.95,18.37,13.89,49.81,49.41,56.35,132.31,9.35,118.69,8.63,252.48-2.88,327.29-7.73,50.24-32,81.66-47.12,96.89-6.49,6.54-6.16,17.17.68,23.34,39.86,35.91,161.16,137,248.45,122.14,3.25-.55,4.14-4.84,1.38-6.65-30.03-19.65-131.83-112.74-99.82-458.7,0,0,78.56,23.15,178.89,121.39,1.77,1.73,4.72,1.16,5.73-1.1,6.7-15.1,34-63.73,126.13-123.17,0,0,4.32,150.34-8.63,253.2-10.17,80.82-67.41,130.11-91.48,147.52-3.32,2.4-1.47,7.64,2.62,7.46,6.41-.28,14.89-1.17,24.84-3.45,23.02-5.27,30.21.48,34.05,2.88,3.59,2.24,140.02,133.54,226.07,147.61,5.64.92,9.17-5.88,5.11-9.9-22.09-21.91-68.65-73.26-79.17-126.2-10.68-53.76,14.55-77.55,26.84-85.7,3.66-2.42,5.33-6.94,4.23-11.19-6.91-26.85-29.5-118.49-33.95-186.53-5.27-80.56-2.64-209.08,25.42-299,21.77-69.77,60-126.12,76.03-147.86,2.63-3.57-.91-8.36-5.11-6.95-19.52,6.6-63.39,29.14-142.14,105.89-94.69,92.29-150.43,150.13-166.4,166.86-2.8,2.94-7.27,3.49-10.71,1.32-32.44-20.46-189.95-119.58-258.8-158.84-46.32-26.41-76.75-35.1-93.63-37.83Z"/>
    <path class="st0" d="M4637.06,2012.67c-28.18-3.68-116.07-24.55-205.69-143.06-4.72-6.25-13.18-8.34-20.25-4.97l-39.52,18.8c-4.67,2.22-8.6,5.75-11.3,10.17-23.66,38.64-145.71,235.86-270.66,398.59-139.19,181.27-199.72,236.3-199.72,236.3,0,0-29.27-36.21-58.04-54.91-28.77-18.7-36.45-17.74-42.2-13.91s-329.67,315.57-321.8,589.84c.1,3.6,5.15,4.36,6.29.94,22.32-66.61,117.97-315.85,342.84-466.58l62.8,125.59c2.82,5.65,10.66,6.22,14.26,1.03,26.78-38.54,118.17-171.11,235.48-352.49,140.27-216.87,262.19-401.38,262.19-401.38,0,0,136.77,86.76,245.52,59.41,1.83-.46,1.68-3.13-.2-3.37Z"/>
    <path class="st0" d="M5001.1,856.46c.38-.94-.71-1.79-1.51-1.17-19.37,14.89-132.36,111.71-169.79,370.04-34.53,267.34,35.97,475.22-106.46,843.51-203.54,515.59-525.4,893.07-565.17,938.61-.72.83.28,2.02,1.22,1.45,69.43-41.85,803.52-491.89,1091.21-978.91,302.11-511.43,351.75-925.76,448.85-1132.92,79.72-170.06,179.64-261.1,212.87-288.25,1.96-1.6.12-4.72-2.23-3.77-65,26.16-347.91,163.34-501.96,617.87-174.79,515.75-155.37,658.18-425.12,1003.45-269.74,345.27-584.8,556.75-584.8,556.75,0,0,399.22-485.54,533.01-856.71,180.81-585.48-104.57-640.41,69.88-1069.96Z"/>
    <path class="st0" d="M5991.86,1581.15s-129.84,42.57-216.18-83.69c-.98-1.44-2.94-1.8-4.35-.78-18.45,13.36-131.88,97.73-209.98,207.47-108.98,154.29-102.5,270.82-255.72,362.54,0,0,91.47-36.21,151.42-158.97,51.31-101.18,67.02-132.35,101.66-175.51,34.65-43.16,89.2-92.55,113.65-102.14,24.46-9.59,52.27,12.47,60.42,24.46,6.01,8.84,14.11,23.16,17.95,30.07,1.1,1.99,3.8,2.35,5.4.73l90.31-91.7s82.72,21.58,145.42-12.47Z"/>
    <path class="st0" d="M6289.03,471.22c1.68-5.76-3.4-11.22-9.28-10.02-39.42,8.08-170.11,41.89-310.56,155.33-168.32,135.95-202.45,230.9-277.98,433.75-75.53,202.85-73.77,205.37-73.77,208.96s5.04,5.39,7.55,0c2.52-5.39,94.83-268.9,129.36-344.19,34.53-75.29,117.01-212.92,221.07-284.85,104.06-71.93,164.96-89.67,201.41-93.51,36.45-3.84,38.84,15.35,25.42,39.32-13.43,23.98-16.54,25.18-14.15,28.53,2.4,3.36,5.04,4.08,8.39.72,3.14-3.14,75.23-74.6,92.53-134.05Z"/>
    <path class="st0" d="M5835.4,860.83s103.94-96.11,228.74-147.18c133.79-55.03,295.64-110.06,389.51-246.01,84.89-122.95,99.39-291.79,101.38-322.96.04-.64.97-.67,1.06-.03,4.1,29.99,18.55,189.91-107.83,359.36-115.81,152.81-327.29,195.97-406.77,236.61-107.78,54.07-191.46,119.29-198.17,122.88-6.71,3.6-10.72-.02-7.91-2.67Z"/>
    <path class="st0" d="M4992.36,1849.21s-88.58,312.15-423.88,757.05c-.79,1.05.49,2.4,1.56,1.65,30.42-21.29,172.82-124.12,275.1-253.26,0,0-106.7,105.5-179.35,152.26,0,0,260.59-376.54,326.57-657.7Z"/>
    <path class="st0" d="M1663.9,856.46c-.38-.94.71-1.79,1.51-1.17,19.37,14.89,132.36,111.71,169.79,370.04,34.53,267.34-35.97,475.22,106.46,843.51,203.54,515.59,525.4,893.07,565.17,938.61.72.83-.28,2.02-1.22,1.45-69.43-41.85-803.52-491.89-1091.21-978.91-302.11-511.43-351.75-925.76-448.85-1132.92-79.72-170.06-179.64-261.1-212.87-288.25-1.96-1.6-.12-4.72,2.23-3.77,65,26.16,347.91,163.34,501.96,617.87,174.79,515.75,155.37,658.18,425.12,1003.45,269.74,345.27,584.8,556.75,584.8,556.75,0,0-399.22-485.54-533.01-856.71-180.81-585.48,104.57-640.41-69.88-1069.96Z"/>
    <path class="st0" d="M673.14,1581.15s129.84,42.57,216.18-83.69c.98-1.44,2.94-1.8,4.35-.78,18.45,13.36,131.88,97.73,209.98,207.47,108.98,154.29,102.5,270.82,255.72,362.54,0,0-91.47-36.21-151.42-158.97-51.31-101.18-67.02-132.35-101.66-175.51-34.65-43.16-89.2-92.55-113.65-102.14-24.46-9.59-52.27,12.47-60.42,24.46-6.01,8.84-14.11,23.16-17.95,30.07-1.1,1.99-3.8,2.35-5.4.73l-90.31-91.7s-82.72,21.58-145.42-12.47Z"/>
    <path class="st0" d="M375.97,471.22c-1.68-5.76,3.4-11.22,9.28-10.02,39.42,8.08,170.11,41.89,310.56,155.33,168.32,135.95,202.45,230.9,277.98,433.75,75.53,202.85,73.77,205.37,73.77,208.96s-5.04,5.39-7.55,0c-2.52-5.39-94.83-268.9-129.36-344.19s-117.01-212.92-221.07-284.85-164.96-89.67-201.41-93.51c-36.45-3.84-38.84,15.35-25.42,39.32,13.43,23.98,16.54,25.18,14.15,28.53s-5.04,4.08-8.39.72c-3.14-3.14-75.23-74.6-92.53-134.05Z"/>
    <path class="st0" d="M829.6,860.83s-103.94-96.11-228.74-147.18c-133.79-55.03-295.64-110.06-389.51-246.01-84.89-122.95-99.39-291.79-101.38-322.96-.04-.64-.97-.67-1.06-.03-4.1,29.99-18.55,189.91,107.83,359.36,115.81,152.81,327.29,195.97,406.77,236.61,107.78,54.07,191.46,119.29,198.17,122.88,6.71,3.6,10.72-.02,7.91-2.67Z"/>
    <path class="st0" d="M1672.64,1849.21s88.58,312.15,423.88,757.05c.79,1.05-.49,2.4-1.56,1.65-30.42-21.29-172.82-124.12-275.1-253.26,0,0,106.7,105.5,179.35,152.26,0,0-260.59-376.54-326.57-657.7Z"/>
    <path class="st0" d="M2849.84,1936.3c23.93-24.85,80.92-74.97,160.74-87.13,4.45-.68,6.27-6.09,3.12-9.3l-50.12-51.24c-7.61-7.78-20.18-7.66-27.61.29-22.53,24.1-66.85,76.93-92.36,143.44-1.46,3.82,3.39,6.88,6.22,3.93Z"/>
    <path class="st0" d="M2808.95,1998.06c2.53-2.17,6.21.75,4.64,3.69-13.69,25.67-40.05,82-35.76,128.48,5.43,58.78,33.87,132.91,111.07,209.12,4.53,4.47.93,12.15-5.4,11.49-45.65-4.78-158.9-12.82-226.47,15.5-1.58.66-2.25,2.54-1.42,4.04,8.96,16.2,57.97,99.76,146.05,158.01,2.77,1.83,6.47,1.19,8.42-1.5,7.72-10.63,26.41-37.46,37.07-61.83,1.39-3.19,5.41-4.19,8.13-2.02,43.25,34.49,326.16,279.12,331.3,580.88.06,3.3-4.57,4.09-5.58.94-21.76-68.14-110.86-309.19-321.03-452.77-2.63-1.8-6.21-1.21-8.15,1.32l-62.65,81.64c-2.64,3.43-7.76,3.57-10.57.27-25.99-30.56-137.27-163.57-171.49-239.62-38.84-86.32-30.21-102.14,4.32-114.37,29.79-10.55,92.79-23.25,109.51-26.53,2.16-.42,3.43-2.65,2.72-4.73-8.87-25.84-51.85-174.28,85.3-292.01Z"/>
    <path class="st0" d="M2795.34,1418.09c-30.56-29.23-113.16-113.56-155.63-208.98-2.25-5.06-8.91-6.24-12.81-2.3l-263.09,265.81c-3.85,3.89-4.64,9.86-1.92,14.61,11.41,19.95,47.37,75.39,134.44,157.93,110.77,105.02,146.02,121.56,173.36,155.37,27.33,33.81,1.44,71.93-31.65,119.41-33.09,47.47-90.63,114.37-118.69,138.83s-38.84,15.11-89.2-15.11c-48.14-28.88-145.59-126.8-171.03-162.38-1.63-2.28-4.91-2.53-6.88-.54-20.85,21.06-124.21,120.47-251.8,157.48-3.72,1.08-2.88,6.57,1,6.47,58.31-1.56,193.7-9.61,277.67-49.94,0,0,46.04,37.4,119.41,149.62s153.21,174.07,158.97,179.11c5.75,5.04,20.14-28.05,18.7-38.12s-10.79-116.53,40.28-203.57,99.99-125.88,121.56-207.16c21.58-81.28-12.23-126.6-56.11-178.39-43.88-51.79-108.62-107.9-136.67-191.34s-11.51-140.27,2.88-150.34c14.39-10.07,46.04-8.63,108.62,14.39,52.36,19.26,102.71,46.83,134.19,56.58,4.49,1.39,7.8-4.19,4.41-7.44Z"/>
    <path class="st0" d="M2174.69,1753.85c2.11-3.21.79-7.53-2.75-9.04-22.25-9.5-91.37-50.32-91.37-190.64,0-150.84,13.17-303.43,15.75-331.91.2-2.18,2.62-3.39,4.48-2.23,17.55,10.94,87.52,55.79,115.72,92.46,32.37,42.08,5.8,193.14-111.13,292.4,0,0-1.8,2.4.12,4.8s4.56,7.19,7.91,5.27,81.76-22.78,148.9,31.41c58.69,47.37,73.77,167.66,76.63,197.18.26,2.72,3.48,4.02,5.56,2.24,8.26-7.06,24.4-20.04,30.02-18.64,7.67,1.92,72.41,56.59,141.95,66.18s115.57-4.8,119.41-8.15,4.32-12.95-6.23-15.82c-10.55-2.88-93.03-22.06-166.88-127.56-73.85-105.5-130.92-175.03-219.15-197.57,0,0,75.41-69.89,129.36-183.19,53.95-113.29,18.34-123.72-8.99-119.41-27.33,4.32-146.02-6.47-261.83-79.12-115.81-72.65-211.84-135.95-216.87-138.11s-10.43,7.55-8.99,9.71,34.53,20.14,74.09,97.83c39.56,77.69,34.17,205.37,32.01,355.34-2.16,149.98-6.47,223.35,26.97,308.59,0,0-51.79,94.59-79.12,124.08,0,0-1.26,2.34,1.62,4.86s7.73,3.24,11.15,1.62c3.33-1.58,175.65-87.16,231.69-172.56Z"/>
    <path class="st0" d="M2975.96,1459.15c-9.39,11.53-25.28,29.1-43.66,41.49-2.61,1.76-6.08,1.61-8.56-.34-13.02-10.23-54.35-45.77-94.44-113.03-1.05-1.76,1.09-3.68,2.72-2.44,10.66,8.16,30.56,22.46,47.47,29.43,0,0-.58-5.19.95-12.44.58-2.77,4.11-3.63,5.9-1.43,9.58,11.72,36.75,39.28,84.46,45.73,6.22.84,9.12,8.17,5.15,13.03Z"/>
  </g>
</svg>