<?xml version="1.0" encoding="utf-8"?>
<!-- Generator: Adobe Illustrator 25.0.0, SVG Export Plug-In . SVG Version: 6.00 Build 0)  -->
<svg version="1.1" xmlns="http://www.w3.org/2000/svg" xmlns:xlink="http://www.w3.org/1999/xlink" x="0px" y="0px"
	 viewBox="0 0 1000 1000" style="enable-background:new 0 0 1000 1000;" xml:space="preserve">
<g id="BG">
</g>
<g id="Cross_1_">
	<g>
		<path d="M823.26,739.28l-75.05,78.77l-65.39-65.39l-68.37,65.39c-1-2.5-26.43-28.91-76.26-79.26l65.61-60.69L499.14,574.31
			c-38.6,38.64-69.03,70.6-91.29,95.86l64.65,70.6c-3.47,0.5-29.72,22.55-78.77,66.14l-57.22-66.14l-81,81.74l-70.9-80.49
			l73.2-71.76l-65.46-78.07l78.77-66.18l65.39,65.39l86.2-95.12l-107.01-99.58l-62.42,66.88l-76.54-74.31l69.11-65.39l-69.11-69.85
			l70.6-74.31l69.85,65.39l72.08-70.6L469,253.49l-69.09,67.66l94.26,97.1l97.98-90.66l-69.85-75.06l81.74-78.03l72.08,70.6
			l75.8-65.39l71.77,75.5l-75.39,65.05l65.3,63.86l-73.57,80.21c-20.32-18.82-42.36-40.62-66.14-65.39l-96.61,103.29l104.04,96.61
			l65.39-69.11l76.54,75.05l-69.11,69.11L823.26,739.28z"/>
	</g>
</g>
</svg>
